<svg width="50" height="50" viewBox="0 0 50 50" fill="none" xmlns="http://www.w3.org/2000/svg">
<rect width="50" height="50" rx="25" fill="#CBCBCB"/>
<g clip-path="url(#clip0_115_324)">
<path d="M25 25C26.5823 25 28.129 24.5308 29.4446 23.6518C30.7602 22.7727 31.7855 21.5233 32.391 20.0615C32.9965 18.5997 33.155 16.9911 32.8463 15.4393C32.5376 13.8874 31.7757 12.462 30.6569 11.3431C29.538 10.2243 28.1126 9.4624 26.5607 9.15372C25.0089 8.84504 23.4003 9.00347 21.9385 9.60897C20.4767 10.2145 19.2273 11.2398 18.3482 12.5554C17.4692 13.871 17 15.4178 17 17C17.0021 19.1211 17.8457 21.1547 19.3455 22.6545C20.8453 24.1543 22.8789 24.9979 25 25ZM25 11.6667C26.0548 11.6667 27.086 11.9795 27.963 12.5655C28.8401 13.1515 29.5237 13.9845 29.9274 14.959C30.331 15.9336 30.4366 17.0059 30.2309 18.0405C30.0251 19.075 29.5171 20.0254 28.7712 20.7712C28.0254 21.5171 27.075 22.0251 26.0405 22.2309C25.0059 22.4366 23.9336 22.331 22.959 21.9274C21.9845 21.5237 21.1515 20.8401 20.5655 19.963C19.9795 19.086 19.6667 18.0548 19.6667 17C19.6667 15.5855 20.2286 14.229 21.2288 13.2288C22.229 12.2286 23.5855 11.6667 25 11.6667V11.6667Z" fill="black"/>
<path d="M25 27.6666C21.8185 27.6702 18.7683 28.9356 16.5186 31.1852C14.2689 33.4349 13.0035 36.4851 13 39.6666C13 40.0202 13.1405 40.3594 13.3905 40.6094C13.6406 40.8595 13.9797 41 14.3333 41C14.687 41 15.0261 40.8595 15.2761 40.6094C15.5262 40.3594 15.6667 40.0202 15.6667 39.6666C15.6667 37.1913 16.65 34.8173 18.4003 33.067C20.1507 31.3166 22.5246 30.3333 25 30.3333C27.4753 30.3333 29.8493 31.3166 31.5997 33.067C33.35 34.8173 34.3333 37.1913 34.3333 39.6666C34.3333 40.0202 34.4738 40.3594 34.7238 40.6094C34.9739 40.8595 35.313 41 35.6667 41C36.0203 41 36.3594 40.8595 36.6095 40.6094C36.8595 40.3594 37 40.0202 37 39.6666C36.9965 36.4851 35.731 33.4349 33.4814 31.1852C31.2317 28.9356 28.1815 27.6702 25 27.6666V27.6666Z" fill="black"/>
</g>
<defs>
<clipPath id="clip0_115_324">
<rect width="32" height="32" fill="white" transform="translate(9 9)"/>
</clipPath>
</defs>
</svg>
